<?xml version="1.0" encoding="utf-8"?>
<!-- Generator: Adobe Illustrator 16.2.1, SVG Export Plug-In . SVG Version: 6.00 Build 0)  -->
<!DOCTYPE svg PUBLIC "-//W3C//DTD SVG 1.1//EN" "http://www.w3.org/Graphics/SVG/1.1/DTD/svg11.dtd">
<svg version="1.1" id="Calque_1" xmlns="http://www.w3.org/2000/svg" xmlns:xlink="http://www.w3.org/1999/xlink" x="0px" y="0px"
	 width="617.088px" height="117.089px" viewBox="0 0 617.088 117.089" enable-background="new 0 0 617.088 117.089"
	 xml:space="preserve">
<path fill="#4D24DA" d="M148.96,41.103h21.014v7.395H148.96v23.158c0,2.506,0.18,4.543,0.537,6.113
	c0.356,1.572,0.946,2.84,1.767,3.807c0.823,0.962,1.875,1.625,3.163,1.982c1.285,0.358,2.854,0.537,4.72,0.537
	c2.572,0,4.646-0.214,6.215-0.645c1.571-0.428,3.072-0.999,4.504-1.715l1.285,7.503c-0.998,0.433-2.59,1.004-4.768,1.719
	c-2.181,0.711-4.881,1.069-8.096,1.069c-3.719,0-6.754-0.428-9.113-1.288c-2.359-0.854-4.201-2.143-5.523-3.856
	c-1.321-1.717-2.233-3.843-2.729-6.383c-0.503-2.535-0.751-5.484-0.751-8.844V48.497h-10.509v-7.395h10.509V27.166l8.79-1.503
	V41.103z"/>
<path fill="#4D24DA" d="M219.338,65.972c0,3.936-0.555,7.49-1.662,10.67c-1.109,3.182-2.666,5.918-4.664,8.204
	c-2.002,2.286-4.396,4.057-7.186,5.306c-2.785,1.251-5.822,1.875-9.111,1.875c-3.215,0-6.199-0.624-8.953-1.875
	c-2.752-1.249-5.125-3.02-7.127-5.306s-3.555-5.022-4.664-8.204c-1.107-3.18-1.661-6.734-1.661-10.67
	c0-3.924,0.554-7.504,1.661-10.719c1.109-3.219,2.662-5.947,4.664-8.199s4.375-4.006,7.127-5.258
	c2.754-1.248,5.738-1.875,8.953-1.875c3.289,0,6.326,0.627,9.111,1.875c2.789,1.252,5.184,3.006,7.186,5.258
	c1.998,2.252,3.555,4.98,4.664,8.199C218.784,58.468,219.338,62.048,219.338,65.972z M210.225,65.972
	c0-5.645-1.217-10.094-3.646-13.344c-2.43-3.254-5.719-4.883-9.863-4.883c-4.068,0-7.309,1.629-9.703,4.883
	c-2.393,3.25-3.588,7.699-3.588,13.344c0,5.576,1.195,9.99,3.588,13.244c2.395,3.252,5.635,4.879,9.703,4.879
	c4.145,0,7.434-1.627,9.863-4.879C209.008,75.962,210.225,71.548,210.225,65.972z"/>
<path fill="#4D24DA" d="M226.602,41.103h8.9v42.028c0.213,0.069,0.639,0.156,1.285,0.267c0.643,0.109,1.393,0.213,2.25,0.323
	c0.857,0.104,1.77,0.195,2.732,0.266c0.969,0.074,1.914,0.108,2.846,0.108c4.287,0,7.34-1.287,9.164-3.861
	c1.822-2.574,2.736-6.932,2.736-13.08V41.103h8.789v27.98c0,3.359-0.322,6.434-0.965,9.221c-0.645,2.79-1.752,5.203-3.324,7.235
	c-1.57,2.037-3.605,3.612-6.109,4.719c-2.5,1.109-5.646,1.662-9.438,1.662c-4.289,0-8.021-0.287-11.203-0.858
	c-3.18-0.571-5.736-1.108-7.664-1.605V41.103z"/>
<path fill="#4D24DA" d="M273.428,66.081c0-4.502,0.715-8.398,2.145-11.688c1.428-3.283,3.396-6,5.895-8.146
	c2.504-2.143,5.418-3.736,8.736-4.768c3.326-1.039,6.881-1.559,10.672-1.559c2.426,0,4.84,0.16,7.238,0.484
	c2.391,0.324,4.947,0.91,7.666,1.768l-2.037,7.611c-2.361-0.855-4.525-1.41-6.486-1.662c-1.967-0.248-3.955-0.377-5.955-0.377
	c-2.572,0-5.002,0.342-7.289,1.023c-2.289,0.68-4.27,1.752-5.949,3.213c-1.68,1.467-3.021,3.363-4.021,5.686
	c-0.998,2.32-1.5,5.131-1.5,8.414c0,3.146,0.465,5.842,1.395,8.092c0.926,2.256,2.234,4.115,3.914,5.574
	c1.674,1.47,3.699,2.56,6.055,3.275c2.359,0.715,4.969,1.072,7.826,1.072c2.287,0,4.484-0.126,6.598-0.374
	c2.107-0.254,4.41-0.807,6.914-1.662l1.287,7.397c-2.504,0.93-5.039,1.588-7.611,1.98c-2.574,0.393-5.364,0.59-8.365,0.59
	c-4.006,0-7.664-0.555-10.988-1.662c-3.324-1.104-6.182-2.731-8.576-4.878c-2.396-2.143-4.254-4.843-5.576-8.093
	C274.09,74.138,273.428,70.368,273.428,66.081z"/>
<path fill="#4D24DA" d="M323.493,90.848V18.053l8.898-1.501v25.301c1.426-0.57,3.037-1.021,4.824-1.338
	c1.785-0.324,3.539-0.484,5.252-0.484c3.787,0,6.949,0.553,9.488,1.662c2.535,1.107,4.555,2.66,6.055,4.662
	c1.502,2.002,2.574,4.398,3.221,7.186c0.641,2.785,0.963,5.857,0.963,9.217v28.091h-8.789V64.685c0-6.141-0.859-10.486-2.574-13.025
	c-1.715-2.533-4.791-3.803-9.223-3.803c-1.857,0-3.664,0.195-5.412,0.588c-1.754,0.393-3.02,0.77-3.805,1.127v41.276H323.493z"/>
<path fill="#2F2D31" d="M402.958,78.407c0-1.784-0.732-3.249-2.199-4.393c-1.465-1.143-3.283-2.146-5.467-3.006
	c-2.18-0.854-4.553-1.697-7.127-2.517c-2.574-0.82-4.951-1.841-7.133-3.058c-2.18-1.213-4-2.714-5.467-4.502
	c-1.465-1.784-2.197-4.108-2.197-6.967c0-4.006,1.627-7.346,4.877-10.024c3.254-2.679,8.346-4.021,15.277-4.021
	c2.719,0,5.523,0.2,8.42,0.592c2.893,0.393,5.375,0.907,7.451,1.554l-1.611,7.936c-0.57-0.288-1.357-0.594-2.359-0.913
	c-1-0.322-2.143-0.605-3.43-0.858c-1.285-0.248-2.664-0.445-4.125-0.59c-1.467-0.144-2.881-0.214-4.238-0.214
	c-7.715,0-11.576,2.107-11.576,6.327c0,1.5,0.732,2.77,2.199,3.803c1.461,1.038,3.301,1.985,5.518,2.841
	c2.217,0.858,4.611,1.734,7.184,2.63c2.576,0.895,4.965,1.981,7.186,3.267c2.213,1.287,4.053,2.84,5.518,4.665
	c1.467,1.822,2.199,4.125,2.199,6.914c0,4.501-1.754,7.986-5.252,10.451c-3.502,2.47-9.043,3.698-16.619,3.698
	c-3.43,0-6.576-0.282-9.434-0.854c-2.861-0.572-5.574-1.431-8.148-2.574l1.715-8.039c2.504,1.142,5.131,2.089,7.883,2.841
	c2.748,0.75,5.697,1.124,8.842,1.124C398.918,84.52,402.958,82.481,402.958,78.407z"/>
<path fill="#2F2D31" d="M433.514,55.467h21.016v7.395h-21.016v18.062c0,2.504,0.18,4.54,0.537,6.11s0.947,2.84,1.768,3.804
	c0.824,0.964,1.877,1.628,3.162,1.986c1.287,0.357,2.857,0.536,4.723,0.536c2.572,0,4.645-0.216,6.215-0.646
	c1.57-0.427,3.072-0.999,4.502-1.715l1.285,7.504c-0.998,0.432-2.59,1.003-4.766,1.719c-2.184,0.711-4.883,1.068-8.098,1.068
	c-3.717,0-6.752-0.427-9.113-1.286c-2.361-0.855-4.201-2.142-5.521-3.856c-1.322-1.72-2.234-3.843-2.732-6.382
	c-0.5-2.535-0.75-5.483-0.75-8.842V62.861h-10.508v-7.395h10.508V41.529l8.789-1.502V55.467z"/>
<path fill="#2F2D31" d="M503.893,65.972c0,3.934-0.553,7.49-1.662,10.67c-1.105,3.179-2.664,5.915-4.662,8.201
	c-2.002,2.285-4.398,4.057-7.186,5.304c-2.787,1.252-5.824,1.875-9.113,1.875c-3.213,0-6.197-0.623-8.949-1.875
	c-2.756-1.247-5.127-3.019-7.129-5.304c-2.004-2.286-3.557-5.022-4.664-8.201c-1.109-3.18-1.662-6.736-1.662-10.67
	c0-3.927,0.553-7.504,1.662-10.719c1.107-3.22,2.66-5.951,4.664-8.202c2.002-2.251,4.373-4.004,7.129-5.256
	c2.752-1.247,5.736-1.875,8.949-1.875c3.289,0,6.326,0.628,9.113,1.875c2.787,1.252,5.184,3.005,7.186,5.256
	c1.998,2.251,3.557,4.982,4.662,8.202C503.34,58.468,503.893,62.045,503.893,65.972z M494.782,65.972
	c0-5.646-1.219-10.096-3.646-13.345c-2.432-3.255-5.721-4.882-9.865-4.882c-4.068,0-7.307,1.627-9.701,4.882
	c-2.395,3.249-3.59,7.699-3.59,13.345c0,5.573,1.195,9.988,3.59,13.243c2.395,3.25,5.633,4.878,9.701,4.878
	c4.145,0,7.434-1.628,9.865-4.878C493.563,75.96,494.782,71.545,494.782,65.972z"/>
<path fill="#2F2D31" d="M511.231,42.492c3.215-0.785,6.414-1.391,9.592-1.822c3.182-0.429,6.17-0.643,8.957-0.643
	c6.645,0,11.666,1.715,15.059,5.148c3.395,3.429,5.096,8.935,5.096,16.506v29.163h-8.789V63.293c0-3.216-0.289-5.824-0.859-7.826
	c-0.572-2.003-1.381-3.556-2.412-4.664c-1.041-1.107-2.291-1.875-3.754-2.308c-1.465-0.427-3.059-0.643-4.773-0.643
	c-1.43,0-2.947,0.093-4.553,0.267c-1.609,0.185-3.162,0.415-4.662,0.698v42.027h-8.9V42.492z"/>
<path fill="#2F2D31" d="M581.776,39.92c6.717,0,11.898,2.093,15.547,6.271c3.641,4.184,5.465,10.526,5.465,19.029v3.11h-35.592
	c0.357,5.146,2.055,9.061,5.09,11.738c3.037,2.683,7.309,4.023,12.812,4.023c3.146,0,5.824-0.255,8.039-0.751
	c2.217-0.502,3.896-1.039,7.482-2.4l1.184,7.504c-3.518,1.365-5.445,1.972-8.234,2.614c-2.787,0.646-5.936,0.962-9.434,0.962
	c-4.289,0-8.062-0.657-11.312-1.979c-3.254-1.323-5.949-3.129-8.092-5.415c-2.146-2.289-3.756-5.021-4.826-8.201
	c-1.072-3.179-1.607-6.63-1.607-10.347c0-4.433,0.68-8.288,2.037-11.577c1.357-3.29,3.145-6.008,5.359-8.149
	c2.213-2.146,4.717-3.751,7.506-4.824C575.985,40.455,578.844,39.92,581.776,39.92z M593.784,61.146
	c0-4.215-1.111-7.556-3.324-10.021c-2.215-2.47-5.146-3.7-8.791-3.7c-2.074,0-3.951,0.393-5.629,1.179
	c-1.68,0.789-3.129,1.823-4.342,3.109c-1.217,1.287-2.182,2.755-2.896,4.395c-0.711,1.644-1.18,3.323-1.393,5.038H593.784z"/>
<g>
	<path fill="#2F2D31" d="M37.216,38.477C43.486,23.662,96.8,14.184,96.8,14.184C85.195,8.635,69.6,7.8,53.547,13.611
		C22.505,24.851,1.741,56.311,11.981,82.557c10.401,26.648,46.247,31.597,75.412,13.469c14.388-8.941,24.071-21.733,28.182-34.508
		L59.413,93.584C59.413,93.584,31.427,52.154,37.216,38.477z"/>
	<path fill="#4D24DA" d="M107.661,23.092c0,0-41.942,8.986-46.783,20.84c-2.353,5.762,9.149,23.152,9.149,23.152l46.29-22.848
		c0.518-4.923-0.741-8.933-2.132-11.941C112.572,28.515,110.316,25.975,107.661,23.092z"/>
</g>
</svg>
