<svg version="1" xmlns="http://www.w3.org/2000/svg" width="933.333" height="933.333" viewBox="0 0 700.000000 700.000000"><path d="M403.8 46.5c-.2.2-3.4.6-7.3.9-12.9 1.2-16.9 1.7-29 3.7-6.6 1.2-12.9 2.2-14 2.4-1.1.2-5 1-8.6 1.9-3.7.8-7.8 1.7-9.2 2-4.2.7-26.7 7.4-37.2 11-52.2 17.7-105.9 48.4-148 84.4-13.3 11.4-25.3 23-43.1 41.8C97.3 205.2 68 244.1 68 246.9c0 .5-.4 1.1-.8 1.3-1.2.5-11.7 18.5-18.1 31.2-17.1 33.5-29.3 73.6-32.8 108-1.5 14.6-.8 54 1.2 61.6.2.8.6 3.7 1 6.4.3 2.7.8 5.2 1 5.6.2.3.6 2.5 1 4.8.8 5.8 6.4 25.1 9.5 32.7 8.3 20.7 14.1 32.2 23.6 46.7 15.6 23.7 33.9 42.4 59.1 60.6 4 2.9 7.5 5.2 7.8 5.2.2 0 2.8 1.5 5.7 3.3 18 11.5 47.1 23.8 67.8 28.7 1.9.5 6.2 1.6 9.5 2.4 3.3.9 7.4 1.8 9 2.1 1.7.2 4.1.7 5.5.9 2.7.5 16 2.5 20 3.1 18 2.6 59.5 2.6 83-.1 5.3-.5 20.9-2.9 25.6-3.8 1.2-.2 3.9-.7 6-1 2.2-.4 5.5-1.1 7.4-1.6 1.9-.5 4.6-1.1 6-1.4 5.7-1.2 15.8-3.7 20.1-5.2 2.5-.8 5.4-1.6 6.5-1.8 7-1.5 39.3-13.3 53.4-19.7 17.7-8 53.3-27 57.7-30.8.7-.6 1.4-1.1 1.7-1.1 1.8 0 40.5-27.6 47.1-33.7 1.1-1 4.7-4.1 8-6.8 7.2-6 7.5-6.2 21.3-19.8 43.4-42.4 77.2-94.5 94.8-146.1 1.3-3.8 2.4-7.1 2.4-7.2 0-.3-36.9 20.5-40 22.6-.8.5-5.5 3.2-10.5 6-4.9 2.8-11 6.2-13.5 7.6-6.1 3.5-40.5 23.1-45.5 26-10.7 6-64.2 36.5-65.5 37.4-.8.5-4.9 2.8-9 5.1s-10 5.6-13 7.4c-3 1.8-35 20.1-71 40.6-36 20.4-69.3 39.4-73.9 42.1-4.6 2.7-8.7 4.6-9.2 4.1-.8-.8-23.2-36-28.3-44.3-1.5-2.5-3.1-5.2-3.6-6-7.6-12.1-30.9-52.2-38-65.5-2.4-4.4-5.5-10.3-7-13-3.3-5.9-23.1-45.5-25.3-50.5-.9-1.9-3.2-7.1-5.2-11.5-7.6-16.4-23.6-57.9-25.1-64.9-.2-1.1-1-4-1.9-6.5-1.8-5.7-5.2-20.1-6-26.1-.4-2.4-.8-4.7-1-5-1.5-2.4-2.1-26.2-1-35 3.8-29.5 30.9-55 87.6-82.4 26.4-12.8 77.2-32 104.9-39.8 1.9-.5 6-1.8 9-2.8 3-1 8.2-2.6 11.5-3.5 3.3-.9 8.9-2.5 12.5-3.6 9.8-2.9 41.8-11.3 57-14.9 16.6-3.9 16.6-3.9 18.8-4.4.9-.2 5.8-1.4 10.7-2.6 9.6-2.3 41.5-9.1 55.3-11.7 4.5-.9 8.2-1.8 8.2-2.2 0-2.1-36.4-14.8-54.5-19-15.5-3.6-17.9-4.1-22.6-4.6-2.6-.3-5.7-.8-6.9-1-1.2-.2-4.8-.7-7.9-1.1-3.1-.3-6.5-.8-7.6-1.1-2.3-.6-57.2-1.3-57.7-.8z"/><path d="M601.5 136.9c-87.7 22.3-143.7 41.4-194.5 66.5-40.1 19.8-66.9 42.7-70.9 60.6-.8 3.7-.6 15.8.3 21 4.3 22.6 19.8 57 44.8 99.2 5.4 9.1 10.6 17.6 11.6 18.8l1.7 2.2 37-18.2c20.4-10 46.9-23.1 59-29 25.2-12.3 67.2-33 119-58.5 19.8-9.8 44.6-21.9 55.1-27 10.7-5.3 19.4-10.1 19.8-11 1.2-3.1-.1-29.8-1.9-38.5-4.8-24.2-16.5-49.5-32.3-69.5-6.9-8.7-20.2-23.5-21-23.5-.4.1-12.8 3.2-27.7 6.9z"/></svg>