<svg xmlns="http://www.w3.org/2000/svg" viewBox="0 0 754.77 531.87"><defs><style>.cls-1{fill:#495284;}.cls-2{fill:#5b67a5;}.cls-3{fill:#495d84;}.cls-4{fill:#5b74a5;}.cls-5{fill:#497084;}.cls-6{fill:#5b8ca5;}.cls-7{fill:#498484;}.cls-8{fill:#5ba5a5;}.cls-14,.cls-9{fill:#fff;}.cls-9{opacity:0.6;}.cls-10,.cls-14{isolation:isolate;font-size:12px;font-family:ArialMT, Arial;}.cls-11{letter-spacing:-0.11em;}.cls-12{letter-spacing:-0.02em;}.cls-13{letter-spacing:-0.06em;}.cls-15{fill:#36f;}.cls-16{font-size:30px;font-family:MyriadPro-Regular, Myriad Pro;}.cls-17{letter-spacing:0.01em;}.cls-18{letter-spacing:-0.04em;}.cls-19{letter-spacing:-0.03em;}.cls-20{letter-spacing:0em;}.cls-21{letter-spacing:0.02em;}.cls-22{letter-spacing:0em;}.cls-23{letter-spacing:-0.01em;}.cls-24{letter-spacing:0em;}.cls-25{letter-spacing:0em;}.cls-26{letter-spacing:-0.01em;}.cls-27{fill:none;stroke:#000;stroke-miterlimit:10;stroke-width:3px;}</style></defs><title>Artboard 1</title><g id="Layer_1" data-name="Layer 1"><path class="cls-1" d="M11.24,22.22a8,8,0,0,1,8-8h308v25h-266l-6,4h-3l-6-4h-7a8,8,0,0,0-8,8v268a8,8,0,0,0,8,8h288v199h-308a8,8,0,0,1-8-8Z"/><path class="cls-2" d="M10.24,21.22a8,8,0,0,1,8-8h308v25h-266l-6,4h-3l-6-4h-7a8,8,0,0,0-8,8v268a8,8,0,0,0,8,8h288v199h-308a8,8,0,0,1-8-8Z"/><path class="cls-3" d="M32.24,48.22a8,8,0,0,1,8-8h7l6,4h3l6-4H364.39v10H82.24l-6,4h-3l-6-4h-7a8,8,0,0,0-8,8v196a8,8,0,0,0,8,8H364.39v25H82.24l-6,4h-3l-6-4h-7a8,8,0,0,0-8,8v8a8,8,0,0,0,8,8H364.39v10H40.24a8,8,0,0,1-8-8Z"/><path class="cls-4" d="M31.24,47.22a8,8,0,0,1,8-8h7l6,4h3l6-4H363.39v10H81.24l-6,4h-3l-6-4h-7a8,8,0,0,0-8,8v196a8,8,0,0,0,8,8H363.39v25H81.24l-6,4h-3l-6-4h-7a8,8,0,0,0-8,8v8a8,8,0,0,0,8,8H363.39v10H39.24a8,8,0,0,1-8-8Z"/><path class="cls-5" d="M53.24,59.22a8,8,0,0,1,8-8h7l6,4h3l6-4h65.94v25H103.24l-6,4h-3l-6-4h-7a8,8,0,0,0-8,8v65a8,8,0,0,0,8,8h67.94v10H82.74l-6,4h-3l-6-4H53.24Z"/><path class="cls-6" d="M52.24,58.22a8,8,0,0,1,8-8h7l6,4h3l6-4h65.94v25H102.24l-6,4h-3l-6-4h-7a8,8,0,0,0-8,8v65a8,8,0,0,0,8,8h67.94v10H81.74l-6,4h-3l-6-4H52.24Z"/><path class="cls-7" d="M74.24,85.22a8,8,0,0,1,8-8h7l6,4h3l6-4h44.58v25H103.74l-6,4h-3l-6-4H74.24Z"/><path class="cls-8" d="M73.24,84.22a8,8,0,0,1,8-8h7l6,4h3l6-4h44.58v25H102.74l-6,4h-3l-6-4H73.24Z"/><path class="cls-7" d="M74.24,103.22h15l6,4h3l6-4h29.11v25H103.74l-6,4h-3l-6-4H74.24Z"/><path class="cls-8" d="M73.24,102.22h15l6,4h3l6-4h29.11v25H102.74l-6,4h-3l-6-4H73.24Z"/><path class="cls-7" d="M74.24,129.22h15l6,4h3l6-4H135.8v25H103.74l-6,4h-3l-6-4h-6.5a8,8,0,0,1-8-8Z"/><path class="cls-8" d="M73.24,128.22h15l6,4h3l6-4H134.8v25H102.74l-6,4h-3l-6-4h-6.5a8,8,0,0,1-8-8Z"/><rect class="cls-9" x="78.24" y="133.22" width="51.56" height="16" rx="4"/><text class="cls-10" transform="translate(83.24 145.72)">Phone</text><rect class="cls-9" x="78.24" y="107.22" width="49.11" height="16" rx="4"/><text class="cls-10" transform="translate(83.24 119.72)"><tspan class="cls-11">T</tspan><tspan x="6" y="0">ablet</tspan></text><rect class="cls-9" x="78.24" y="81.22" width="64.58" height="16" rx="4"/><text class="cls-10" transform="translate(83.24 93.72)">Desktop</text><path class="cls-5" d="M53.24,168.22h15l6,4h3l6-4h98.39v25H103.24l-6,4h-3l-6-4h-7a8,8,0,0,0-8,8v39a8,8,0,0,0,8,8H181.63v10H82.74l-6,4h-3l-6-4h-6.5a8,8,0,0,1-8-8Z"/><path class="cls-6" d="M52.24,167.22h15l6,4h3l6-4h98.39v25H102.24l-6,4h-3l-6-4h-7a8,8,0,0,0-8,8v39a8,8,0,0,0,8,8H180.63v10H81.74l-6,4h-3l-6-4h-6.5a8,8,0,0,1-8-8Z"/><path class="cls-7" d="M74.24,202.22a8,8,0,0,1,8-8h7l6,4h3l6-4H145v25H103.74l-6,4h-3l-6-4H74.24Z"/><path class="cls-8" d="M73.24,201.22a8,8,0,0,1,8-8h7l6,4h3l6-4H144v25H102.74l-6,4h-3l-6-4H73.24Z"/><path class="cls-7" d="M74.24,220.22h15l6,4h3l6-4H162.4v25H103.74l-6,4h-3l-6-4h-6.5a8,8,0,0,1-8-8Z"/><path class="cls-8" d="M73.24,219.22h15l6,4h3l6-4H161.4v25H102.74l-6,4h-3l-6-4h-6.5a8,8,0,0,1-8-8Z"/><rect class="cls-9" x="78.24" y="224.22" width="78.15" height="16" rx="4"/><text class="cls-10" transform="translate(83.24 236.72)">Dropdown</text><rect class="cls-9" x="78.24" y="198.22" width="60.78" height="16" rx="4"/><text class="cls-10" transform="translate(83.24 210.72)">Circular</text><rect class="cls-9" x="57.24" y="172.22" width="30.36" height="16" rx="4"/><text class="cls-10" transform="translate(62.24 184.72)">M<tspan class="cls-12" x="10" y="0">T</tspan></text><rect class="cls-9" x="97.6" y="172.22" width="78.02" height="16" rx="4"/><text class="cls-10" transform="translate(102.6 184.72)">Menu<tspan class="cls-13" x="30.02" y="0">T</tspan><tspan x="36.69" y="0">ype</tspan></text><rect class="cls-9" x="57.24" y="55.22" width="20.58" height="16" rx="4"/><text class="cls-10" transform="translate(62.24 67.72)">D</text><rect class="cls-9" x="87.83" y="55.22" width="55.36" height="16" rx="4"/><text class="cls-10" transform="translate(92.83 67.72)">Device</text><rect class="cls-9" x="36.24" y="266.22" width="104.39" height="16" rx="4"/><text class="cls-10" transform="translate(41.24 278.72)">Latin square</text><text class="cls-14" transform="translate(145.63 278.72)">of</text><rect class="cls-9" x="162.86" y="266.22" width="18.15" height="16" rx="4"/><text class="cls-10" transform="translate(167.86 278.72)">1</text><text class="cls-14" transform="translate(186.01 278.72)">replication(s)</text><rect class="cls-9" x="275.74" y="266.22" width="82.65" height="16" rx="4"/><text class="cls-10" transform="translate(280.74 278.72)">not serial</text><rect class="cls-9" x="15.24" y="18.22" width="68.39" height="16" rx="4"/><text class="cls-10" transform="translate(20.24 30.72)">Design 1</text><rect class="cls-15" x="93.63" y="18.22" width="22.23" height="16" rx="4"/><text class="cls-14" transform="translate(20.24 339.72)">Suitable for a multiple of</text><text class="cls-14" transform="translate(187.76 339.72)">6</text><text class="cls-14" transform="translate(205.91 339.72)">Participant(s)</text><text class="cls-14" transform="translate(20.24 364.72)">I plan to recruit</text><rect class="cls-9" x="123.3" y="352.22" width="26.3" height="16" rx="4"/><text class="cls-10" transform="translate(128.3 364.72)">18</text><text class="cls-14" transform="translate(154.6 364.72)">Participant(s)</text><text class="cls-14" transform="translate(20.24 389.72)">Order e<tspan class="cls-12" x="40.68" y="0">f</tspan><tspan x="43.8" y="0">fect coverage</tspan></text><text class="cls-14" transform="translate(175.01 389.72)">100%</text><text class="cls-14" transform="translate(20.24 439.72)"><tspan class="cls-12">A</tspan><tspan x="7.79" y="0">verage duration per trial</tspan></text><rect class="cls-9" x="191.46" y="427.22" width="26.3" height="16" rx="4"/><text class="cls-10" transform="translate(196.46 439.72)">30</text><text class="cls-14" transform="translate(222.76 439.72)">sec</text><text class="cls-14" transform="translate(20.24 464.72)">Delay after each trial</text><rect class="cls-9" x="160.23" y="452.22" width="18.15" height="16" rx="4"/><text class="cls-10" transform="translate(165.23 464.72)">4</text><text class="cls-14" transform="translate(183.38 464.72)">sec</text><text class="cls-14" transform="translate(20.24 489.72)">Delay after each block</text><rect class="cls-9" x="172.72" y="477.22" width="18.15" height="16" rx="4"/><text class="cls-10" transform="translate(177.72 489.72)">1</text><text class="cls-14" transform="translate(195.87 489.72)">sec</text><text class="cls-14" transform="translate(20.24 514.72)">Each session takes</text><text class="cls-14" transform="translate(156.27 514.72)">00:03:24</text><text class="cls-14" transform="translate(223.33 514.72)">per particpant</text><polygon points="123.3 280.82 117.28 270.39 129.32 270.39 123.3 280.82"/><polygon points="347.73 279.43 341.71 269 353.76 269 347.73 279.43"/></g><g id="Replications"><text class="cls-10" transform="translate(167.86 278.72)">1</text></g><g id="Latin"><text class="cls-10" transform="translate(41.24 278.72)">Latin</text></g><g id="Dropdown"><text class="cls-10" transform="translate(83.24 236.72)">Dropdown</text></g><g id="Circular"><text class="cls-10" transform="translate(83.24 210.72)">Circular</text></g><g id="MT"><text class="cls-10" transform="translate(62.24 184.72)">M<tspan class="cls-12" x="10" y="0">T</tspan></text></g><g id="Phone"><text class="cls-10" transform="translate(83.24 145.72)">Phone</text></g><g id="Tablet"><text class="cls-10" transform="translate(83.24 119.72)"><tspan class="cls-11">T</tspan><tspan x="6" y="0">ablet</tspan></text></g><g id="Desktop"><text class="cls-10" transform="translate(83.24 93.72)">Desktop</text></g><g id="D"><text class="cls-10" transform="translate(62.24 67.72)">D</text><text class="cls-16" transform="translate(441.39 76.22)"><tspan class="cls-17">I</tspan><tspan x="7.47" y="0">ndendent</tspan><tspan class="cls-18" x="131.25" y="0"> </tspan><tspan class="cls-19" x="136.53" y="0">V</tspan><tspan x="152.28" y="0">a</tspan><tspan class="cls-20" x="166.74" y="0">r</tspan><tspan class="cls-21" x="176.67" y="0">i</tspan><tspan x="184.29" y="0">able B</tspan><tspan class="cls-20" x="260.55" y="0">r</tspan><tspan class="cls-22" x="270.48" y="0">ick</tspan></text><text class="cls-16" transform="translate(441.39 128.22)"><tspan class="cls-23">C</tspan><tspan class="cls-24" x="17.07" y="0">ondition B</tspan><tspan class="cls-20" x="146.82" y="0">r</tspan><tspan x="156.75" y="0">ick</tspan></text><text class="cls-16" transform="translate(441.39 285.69)"><tspan class="cls-23">C</tspan><tspan class="cls-24" x="17.07" y="0">ou</tspan><tspan class="cls-25" x="50.07" y="0">n</tspan><tspan class="cls-26" x="66.6" y="0">t</tspan><tspan x="76.35" y="0">e</tspan><tspan class="cls-20" x="91.38" y="0">r</tspan><tspan class="cls-22" x="101.31" y="0">balancing B</tspan><tspan class="cls-20" x="247.53" y="0">r</tspan><tspan class="cls-22" x="257.46" y="0">ick</tspan></text><text class="cls-16" transform="translate(441.39 399.42)">Expe<tspan class="cls-20" x="60.75" y="0">r</tspan><tspan x="70.68" y="0">ime</tspan><tspan class="cls-25" x="117.75" y="0">n</tspan><tspan x="134.28" y="0">t B</tspan><tspan class="cls-20" x="166.83" y="0">r</tspan><tspan class="cls-22" x="176.76" y="0">ick</tspan></text><line class="cls-27" x1="426.88" y1="116.72" x2="159.96" y2="116.72"/><path d="M426.6,111.08a5.64,5.64,0,1,1-5.64,5.64A5.63,5.63,0,0,1,426.6,111.08Z"/><path d="M160.24,111.08a5.64,5.64,0,1,0,5.64,5.64A5.64,5.64,0,0,0,160.24,111.08Z"/><line class="cls-27" x1="426.88" y1="65.22" x2="159.96" y2="65.22"/><path d="M426.6,59.58A5.64,5.64,0,1,1,421,65.22,5.63,5.63,0,0,1,426.6,59.58Z"/><path d="M160.24,59.58a5.64,5.64,0,1,0,5.64,5.64A5.64,5.64,0,0,0,160.24,59.58Z"/><line class="cls-27" x1="421.54" y1="278.72" x2="382.3" y2="278.72"/><circle cx="421.25" cy="278.72" r="5.64" transform="translate(2.55 561.24) rotate(-67.5)"/><path d="M382.58,273.08a5.64,5.64,0,1,0,5.64,5.64A5.63,5.63,0,0,0,382.58,273.08Z"/><line class="cls-27" x1="421.54" y1="389.72" x2="344.24" y2="389.72"/><circle cx="421.25" cy="389.72" r="5.64" transform="translate(-100 629.77) rotate(-67.5)"/><path d="M344.52,384.08a5.64,5.64,0,1,0,5.64,5.64A5.63,5.63,0,0,0,344.52,384.08Z"/></g></svg>